<svg width="62" height="64" viewBox="0 0 62 64" fill="none" xmlns="http://www.w3.org/2000/svg">
<path fill-rule="evenodd" clip-rule="evenodd" d="M40 2H42V0H40V2ZM56 2H58V0H56V2ZM54 4H56V2H54V4ZM52 6V4H54V6H52ZM52 6V8H50V6H52ZM42 6H44V4H42V6ZM32 8H34V6H32V8ZM36 10H38V8H36V10ZM44 10H46V8H44V10ZM40 12H42V10H40V12ZM22 14H32V16H36V18H42V16H48V14H42V16H36V14H32V12H22V14ZM20 16H22V14H20V16ZM20 22V16H18V22H12V28H8V30H4V34H2V38H0V52H2V56H4V60H8V62H12V64H26V62H30V60H34V56H36V52H38V38H36V34H34V30H30V28H26V22H20ZM52 14H54V12H52V14ZM56 14H58V12H56V14ZM60 14H62V12H60V14ZM52 20H54V22H56V24H58V26H60V24H58V22H56V20H54V18H52V20ZM40 22H42V20H40V22ZM38 24H40V22H38V24ZM38 24V26H36V24H38ZM46 22H48V20H46V22ZM46 26H48V24H46V26ZM46 30H48V28H46V30ZM8 38V40H10V38H8ZM8 52V50H10V52H8ZM12 54V56H14V54H12ZM6 48L6 42H8L8 48H6Z" fill="#404040"/>
</svg>
